<svg xmlns="http://www.w3.org/2000/svg" xmlns:v="https://svgstorm.com"
viewBox = "0 0 1024 1024"
width="1024"
height="1024">
<g fill="None" fill-opacity="0.0" stroke="#FDFDFD" stroke-opacity="1.00" stroke-width="0.3"><path d="
M 0.00 1024.00 
L 1024.00 1024.00
L 1024.00 0.00
L 0.00 0.00
L 0.00 1024.00
M 538.00 312.00 
C 580.27 317.11 615.47 334.20 648.00 362.00
C 651.94 365.37 655.67 369.11 659.00 373.00
C 687.20 406.00 709.21 448.49 708.00 493.00
C 708.23 498.14 704.55 499.35 699.00 498.00 C 693.45 496.65 686.63 500.79 683.00 497.00
C 681.84 495.79 682.10 494.77 682.00 493.00
C 679.73 453.91 664.33 420.64 639.00 391.00
C 635.08 387.08 630.87 382.87 627.00 379.00
C 598.72 354.83 568.91 342.00 531.98 337.02 C 495.04 332.05 450.87 342.39 420.25 361.25 C 389.64 380.12 371.83 404.42 356.00 435.00
C 355.83 435.33 355.26 435.75 355.00 436.00
C 352.22 442.67 350.48 448.13 348.22 455.22 C 345.97 462.32 344.49 469.51 343.22 477.22 C 341.95 484.93 341.35 493.73 341.00 502.00 C 340.65 510.27 341.17 519.40 341.00 528.00 C 340.83 536.60 341.13 546.26 341.00 555.00 C 340.87 563.74 341.18 573.30 341.00 582.00 C 340.82 590.70 341.35 599.45 341.00 608.00 C 340.65 616.55 341.73 626.77 341.00 635.00 C 340.27 643.23 342.59 654.60 341.00 662.00 C 339.41 669.40 344.99 683.17 340.00 688.00
C 335.74 692.43 324.90 688.02 318.00 689.00 C 311.10 689.98 312.92 676.44 313.00 670.00 C 313.08 663.56 312.97 653.28 313.00 646.00 C 313.03 638.72 313.00 629.64 313.00 622.00 C 313.00 614.36 313.03 605.77 313.00 598.00 C 312.97 590.23 313.08 582.86 313.00 575.00 C 312.92 567.14 313.17 558.95 313.00 551.00 C 312.83 543.05 313.39 535.00 313.00 527.00 C 312.61 519.00 313.86 511.06 313.00 503.00 C 312.14 494.94 313.61 487.72 316.00 482.00
C 316.17 480.49 316.81 478.96 317.00 478.00
C 324.70 439.62 337.19 403.33 364.75 373.75 C 392.32 344.18 422.48 326.79 460.00 317.00
C 460.25 316.75 460.65 316.11 461.00 316.00
C 480.90 309.99 504.39 308.53 526.00 310.00
C 529.95 310.27 534.58 311.59 538.00 312.00
M 522.00 429.00 
C 522.73 432.78 522.60 436.31 522.00 440.00
C 520.09 475.22 476.51 492.90 448.25 474.75 C 420.00 456.59 418.61 413.41 447.25 394.25 C 475.89 375.09 519.24 394.27 522.00 429.00
M 501.00 497.00 
C 501.25 497.26 501.00 498.00 501.00 498.00
C 521.96 498.80 544.06 511.23 554.00 530.00
C 513.04 559.20 490.06 606.94 489.00 656.00
C 489.00 661.33 489.00 666.67 489.00 672.00
C 489.00 675.55 490.96 686.04 489.00 688.00
C 484.21 692.79 471.29 687.66 464.00 689.00 C 456.71 690.34 445.00 688.59 437.00 689.00 C 429.00 689.41 419.20 689.35 411.00 689.00 C 402.80 688.65 391.97 690.24 384.00 689.00 C 376.03 687.76 380.86 674.27 380.00 667.00 C 379.14 659.73 380.19 647.96 380.00 640.00 C 379.81 632.04 379.57 622.10 380.00 614.00 C 380.43 605.90 378.75 594.77 380.00 587.00 C 381.25 579.23 376.62 566.94 381.00 561.00
C 381.22 560.70 381.97 560.21 382.00 560.00
C 382.65 527.32 414.59 499.70 446.00 498.00
C 446.49 497.88 447.04 497.12 448.00 497.00
C 452.52 495.16 459.71 495.82 465.00 496.00 C 470.29 496.18 477.99 495.12 483.00 496.00 C 488.01 496.88 497.64 493.52 501.00 497.00
M 679.00 601.00 
C 675.96 609.23 671.66 617.08 668.00 625.00
C 663.98 633.68 657.37 639.82 651.75 647.75 C 646.14 655.68 636.91 660.55 632.00 668.00
C 622.35 669.79 615.11 677.16 604.32 680.32 C 593.53 683.48 583.11 689.09 571.00 689.00 C 558.89 688.91 541.21 689.71 529.00 689.00 C 516.79 688.29 533.85 675.27 538.77 668.77 C 543.69 662.28 553.75 655.25 559.75 647.75 C 565.76 640.26 572.13 634.00 579.25 627.25 C 586.37 620.50 592.91 613.12 599.75 605.75 C 606.59 598.39 613.83 590.81 620.00 583.00
C 614.23 586.31 605.74 590.55 605.00 597.00
C 598.52 594.59 591.79 604.84 585.25 609.25 C 578.71 613.66 570.47 620.53 565.11 626.11 C 559.74 631.68 548.54 636.67 548.00 644.00
C 539.83 644.57 534.61 654.48 531.00 661.00
C 526.76 657.15 521.64 667.53 517.77 669.77 C 513.90 672.01 506.80 686.51 507.00 671.00 C 507.21 655.49 505.55 637.61 512.00 624.00
C 513.04 619.29 514.75 614.69 516.00 610.00
C 525.03 576.20 547.41 551.32 579.70 535.70 C 611.98 520.07 658.94 512.99 698.00 515.00
C 697.59 545.10 691.41 574.97 679.00 601.00 Z"/>
</g>
<g fill="None" fill-opacity="0.0" stroke="#0F3EC8" stroke-opacity="1.00" stroke-width="0.3"><path d="
M 461.00 316.00 
C 470.22 318.47 480.53 311.83 491.01 312.01 C 501.48 312.19 515.82 310.29 526.00 310.00
C 504.39 308.53 480.90 309.99 461.00 316.00 Z"/>
</g>
<g fill="None" fill-opacity="0.0" stroke="#025CFC" stroke-opacity="1.00" stroke-width="0.3"><path d="
M 461.00 316.00 
C 460.65 316.11 460.25 316.75 460.00 317.00
C 454.00 323.13 439.42 321.89 431.98 326.98 C 424.53 332.06 414.23 334.35 406.92 339.92 C 399.61 345.49 391.63 349.61 384.92 355.92 C 378.21 362.22 371.58 368.51 365.25 375.25 C 358.91 381.98 354.29 389.35 348.75 396.75 C 343.22 404.15 339.01 412.35 334.75 420.75 C 330.49 429.14 327.66 439.29 324.22 448.22 C 320.79 457.16 319.75 471.45 317.00 478.00
C 316.81 478.96 316.17 480.49 316.00 482.00
C 315.39 487.30 315.00 492.43 315.00 498.00
C 315.00 512.25 315.30 527.54 314.00 541.00
C 314.00 590.00 314.00 639.00 314.00 688.00
C 322.33 688.00 330.67 688.00 339.00 688.00
C 344.24 677.63 338.28 662.74 340.00 651.00 C 341.72 639.26 339.20 625.20 340.00 613.00 C 340.80 600.80 339.57 587.35 340.00 575.00 C 340.43 562.65 339.64 548.17 340.00 536.00 C 340.36 523.83 339.48 509.52 340.00 498.00 C 340.52 486.48 341.26 474.60 344.78 464.78 C 348.29 454.95 347.50 443.18 355.00 436.00
C 355.26 435.75 355.83 435.33 356.00 435.00
C 353.62 425.84 367.50 413.22 372.25 404.25 C 377.00 395.27 387.15 386.33 395.25 378.25 C 403.35 370.17 413.38 363.87 423.70 357.70 C 434.01 351.52 445.58 346.50 458.02 343.02 C 470.47 339.55 484.95 335.54 499.00 335.00 C 513.05 334.46 532.82 335.33 546.02 337.98 C 559.22 340.62 571.57 344.63 583.23 349.77 C 594.89 354.92 605.00 359.93 614.70 367.30 C 624.39 374.67 632.83 380.74 640.75 390.25 C 648.67 399.76 654.74 408.01 661.25 418.75 C 667.77 429.49 672.05 440.62 675.98 453.02 C 679.90 465.43 683.35 481.42 684.00 495.00
C 691.67 495.00 699.33 495.00 707.00 495.00
C 706.42 482.65 704.36 467.92 701.67 456.33 C 698.99 444.74 694.87 433.88 690.68 423.32 C 686.49 412.77 680.57 404.53 674.75 395.25 C 668.93 385.98 662.56 378.06 654.75 370.25 C 646.95 362.44 639.79 356.55 631.25 349.75 C 622.72 342.95 613.65 338.08 603.92 333.08 C 594.20 328.07 583.49 323.56 572.93 320.07 C 562.37 316.59 546.33 314.52 538.00 312.00
C 534.58 311.59 529.95 310.27 526.00 310.00
C 515.82 310.29 501.48 312.19 491.01 312.01 C 480.53 311.83 470.22 318.47 461.00 316.00 Z"/>
</g>
<g fill="None" fill-opacity="0.0" stroke="#1442CA" stroke-opacity="1.00" stroke-width="0.3"><path d="
M 356.00 435.00 
C 371.83 404.42 389.64 380.12 420.25 361.25 C 450.87 342.39 495.04 332.05 531.98 337.02 C 568.91 342.00 598.72 354.83 627.00 379.00
C 631.29 382.66 635.38 386.76 639.00 391.00
C 664.33 420.64 679.73 453.91 682.00 493.00
C 682.23 493.67 683.71 494.72 683.00 496.00
C 691.33 496.00 699.67 496.00 708.00 496.00
C 708.30 495.38 707.98 493.70 708.00 493.00
C 709.21 448.49 687.20 406.00 659.00 373.00
C 655.41 369.41 651.54 365.54 648.00 362.00
C 615.47 334.20 580.27 317.11 538.00 312.00
C 546.33 314.52 562.37 316.59 572.93 320.07 C 583.49 323.56 594.20 328.07 603.92 333.08 C 613.65 338.08 622.72 342.95 631.25 349.75 C 639.79 356.55 646.95 362.44 654.75 370.25 C 662.56 378.06 668.93 385.98 674.75 395.25 C 680.57 404.53 686.49 412.77 690.68 423.32 C 694.87 433.88 698.99 444.74 701.67 456.33 C 704.36 467.92 706.42 482.65 707.00 495.00
C 699.33 495.00 691.67 495.00 684.00 495.00
C 683.35 481.42 679.90 465.43 675.98 453.02 C 672.05 440.62 667.77 429.49 661.25 418.75 C 654.74 408.01 648.67 399.76 640.75 390.25 C 632.83 380.74 624.39 374.67 614.70 367.30 C 605.00 359.93 594.89 354.92 583.23 349.77 C 571.57 344.63 559.22 340.62 546.02 337.98 C 532.82 335.33 513.05 334.46 499.00 335.00 C 484.95 335.54 470.47 339.55 458.02 343.02 C 445.58 346.50 434.01 351.52 423.70 357.70 C 413.38 363.87 403.35 370.17 395.25 378.25 C 387.15 386.33 377.00 395.27 372.25 404.25 C 367.50 413.22 353.62 425.84 356.00 435.00 Z"/>
</g>
<g fill="None" fill-opacity="0.0" stroke="#1745CB" stroke-opacity="1.00" stroke-width="0.3"><path d="
M 317.00 478.00 
C 319.75 471.45 320.79 457.16 324.22 448.22 C 327.66 439.29 330.49 429.14 334.75 420.75 C 339.01 412.35 343.22 404.15 348.75 396.75 C 354.29 389.35 358.91 381.98 365.25 375.25 C 371.58 368.51 378.21 362.22 384.92 355.92 C 391.63 349.61 399.61 345.49 406.92 339.92 C 414.23 334.35 424.53 332.06 431.98 326.98 C 439.42 321.89 454.00 323.13 460.00 317.00
C 422.48 326.79 392.32 344.18 364.75 373.75 C 337.19 403.33 324.70 439.62 317.00 478.00 Z"/>
</g>
<g fill="None" fill-opacity="0.0" stroke="#8AABFE" stroke-opacity="1.00" stroke-width="0.3"><path d="
M 659.00 373.00 
C 655.67 369.11 651.94 365.37 648.00 362.00
C 651.54 365.54 655.41 369.41 659.00 373.00 Z"/>
</g>
<g fill="None" fill-opacity="0.0" stroke="#AECDFF" stroke-opacity="1.00" stroke-width="0.3"><path d="
M 639.00 391.00 
C 635.38 386.76 631.29 382.66 627.00 379.00
C 630.87 382.87 635.08 387.08 639.00 391.00 Z"/>
</g>
<g fill="None" fill-opacity="0.0" stroke="#1645CB" stroke-opacity="1.00" stroke-width="0.3"><path d="
M 522.00 440.00 
C 522.19 436.44 522.28 432.55 522.00 429.00
C 519.24 394.27 475.89 375.09 447.25 394.25 C 418.61 413.41 420.00 456.59 448.25 474.75 C 476.51 492.90 520.09 475.22 522.00 440.00
M 482.00 388.00 
C 515.29 393.41 533.49 436.49 511.25 463.25 C 489.00 490.00 446.19 485.54 431.68 453.32 C 417.16 421.11 444.77 381.95 482.00 388.00 Z"/>
</g>
<g fill="None" fill-opacity="0.0" stroke="#005FFE" stroke-opacity="1.00" stroke-width="0.3"><path d="
M 482.00 388.00 
C 444.77 381.95 417.16 421.11 431.68 453.32 C 446.19 485.54 489.00 490.00 511.25 463.25 C 533.49 436.49 515.29 393.41 482.00 388.00 Z"/>
</g>
<g fill="None" fill-opacity="0.0" stroke="#87A9EF" stroke-opacity="1.00" stroke-width="0.3"><path d="
M 522.00 440.00 
C 522.60 436.31 522.73 432.78 522.00 429.00
C 522.28 432.55 522.19 436.44 522.00 440.00 Z"/>
</g>
<g fill="None" fill-opacity="0.0" stroke="#0A30B0" stroke-opacity="1.00" stroke-width="0.3"><path d="
M 339.00 688.00 
C 339.50 688.00 340.00 688.00 340.00 688.00
C 344.99 683.17 339.41 669.40 341.00 662.00 C 342.59 654.60 340.27 643.23 341.00 635.00 C 341.73 626.77 340.65 616.55 341.00 608.00 C 341.35 599.45 340.82 590.70 341.00 582.00 C 341.18 573.30 340.87 563.74 341.00 555.00 C 341.13 546.26 340.83 536.60 341.00 528.00 C 341.17 519.40 340.65 510.27 341.00 502.00 C 341.35 493.73 341.95 484.93 343.22 477.22 C 344.49 469.51 345.97 462.32 348.22 455.22 C 350.48 448.13 352.22 442.67 355.00 436.00
C 347.50 443.18 348.29 454.95 344.78 464.78 C 341.26 474.60 340.52 486.48 340.00 498.00 C 339.48 509.52 340.36 523.83 340.00 536.00 C 339.64 548.17 340.43 562.65 340.00 575.00 C 339.57 587.35 340.80 600.80 340.00 613.00 C 339.20 625.20 341.72 639.26 340.00 651.00 C 338.28 662.74 344.24 677.63 339.00 688.00 Z"/>
</g>
<g fill="None" fill-opacity="0.0" stroke="#EBFDFF" stroke-opacity="1.00" stroke-width="0.3"><path d="
M 340.00 688.00 
C 340.00 688.00 339.50 688.00 339.00 688.00
C 330.67 688.00 322.33 688.00 314.00 688.00
C 314.00 639.00 314.00 590.00 314.00 541.00
C 314.00 526.75 313.70 511.46 315.00 498.00
C 315.00 492.43 315.39 487.30 316.00 482.00
C 313.61 487.72 312.14 494.94 313.00 503.00 C 313.86 511.06 312.61 519.00 313.00 527.00 C 313.39 535.00 312.83 543.05 313.00 551.00 C 313.17 558.95 312.92 567.14 313.00 575.00 C 313.08 582.86 312.97 590.23 313.00 598.00 C 313.03 605.77 313.00 614.36 313.00 622.00 C 313.00 629.64 313.03 638.72 313.00 646.00 C 312.97 653.28 313.08 663.56 313.00 670.00 C 312.92 676.44 311.10 689.98 318.00 689.00 C 324.90 688.02 335.74 692.43 340.00 688.00 Z"/>
</g>
<g fill="None" fill-opacity="0.0" stroke="#356ACB" stroke-opacity="1.00" stroke-width="0.3"><path d="
M 683.00 497.00 
C 685.09 498.48 693.51 496.66 696.00 497.00 C 698.49 497.34 706.99 498.06 708.00 496.00
C 699.67 496.00 691.33 496.00 683.00 496.00
C 683.71 494.72 682.23 493.67 682.00 493.00
C 682.10 494.77 681.84 495.79 683.00 497.00 Z"/>
</g>
<g fill="None" fill-opacity="0.0" stroke="#DEFCFF" stroke-opacity="1.00" stroke-width="0.3"><path d="
M 708.00 496.00 
C 706.99 498.06 698.49 497.34 696.00 497.00 C 693.51 496.66 685.09 498.48 683.00 497.00
C 686.63 500.79 693.45 496.65 699.00 498.00 C 704.55 499.35 708.23 498.14 708.00 493.00
C 707.98 493.70 708.30 495.38 708.00 496.00 Z"/>
</g>
<g fill="None" fill-opacity="0.0" stroke="#E6FFFF" stroke-opacity="1.00" stroke-width="0.3"><path d="
M 448.00 497.00 
C 464.33 494.99 484.61 495.52 501.00 497.00
C 497.64 493.52 488.01 496.88 483.00 496.00 C 477.99 495.12 470.29 496.18 465.00 496.00 C 459.71 495.82 452.52 495.16 448.00 497.00 Z"/>
</g>
<g fill="None" fill-opacity="0.0" stroke="#6493E5" stroke-opacity="1.00" stroke-width="0.3"><path d="
M 446.00 498.00 
C 464.05 497.02 482.93 497.31 501.00 498.00
C 501.00 498.00 501.25 497.26 501.00 497.00
C 484.61 495.52 464.33 494.99 448.00 497.00
C 447.04 497.12 446.49 497.88 446.00 498.00 Z"/>
</g>
<g fill="None" fill-opacity="0.0" stroke="#6C9BFE" stroke-opacity="1.00" stroke-width="0.3"><path d="
M 314.00 541.00 
C 315.30 527.54 315.00 512.25 315.00 498.00
C 313.70 511.46 314.00 526.75 314.00 541.00 Z"/>
</g>
<g fill="None" fill-opacity="0.0" stroke="#1043CD" stroke-opacity="1.00" stroke-width="0.3"><path d="
M 382.00 560.00 
C 381.15 602.65 382.64 645.35 382.00 688.00
C 386.61 691.23 397.10 686.67 403.00 688.00 C 408.90 689.33 417.55 687.69 424.00 688.00 C 430.45 688.31 439.52 688.38 446.00 688.00 C 452.48 687.62 460.99 689.44 467.00 688.00 C 473.01 686.56 484.13 691.27 489.00 688.00
C 490.96 686.04 489.00 675.55 489.00 672.00
C 488.51 666.96 488.52 660.97 489.00 656.00
C 490.06 606.94 513.04 559.20 554.00 530.00
C 544.06 511.23 521.96 498.80 501.00 498.00
C 482.93 497.31 464.05 497.02 446.00 498.00
C 414.59 499.70 382.65 527.32 382.00 560.00
M 552.00 530.00 
C 502.58 565.60 481.35 627.44 488.00 687.00
C 453.00 687.00 418.00 687.00 383.00 687.00
C 381.73 656.35 384.69 620.08 383.00 590.00 C 381.31 559.92 383.88 535.89 405.75 515.75 C 427.63 495.62 458.42 499.70 486.00 499.00 C 513.58 498.30 538.33 505.85 552.00 530.00 Z"/>
</g>
<g fill="None" fill-opacity="0.0" stroke="#005FFE" stroke-opacity="1.00" stroke-width="0.3"><path d="
M 552.00 530.00 
C 538.33 505.85 513.58 498.30 486.00 499.00 C 458.42 499.70 427.63 495.62 405.75 515.75 C 383.88 535.89 381.31 559.92 383.00 590.00 C 384.69 620.08 381.73 656.35 383.00 687.00
C 418.00 687.00 453.00 687.00 488.00 687.00
C 481.35 627.44 502.58 565.60 552.00 530.00 Z"/>
</g>
<g fill="None" fill-opacity="0.0" stroke="#D3FDE4" stroke-opacity="1.00" stroke-width="0.3"><path d="
M 516.00 610.00 
C 524.15 587.91 536.41 568.75 555.25 552.25 C 574.09 535.75 600.21 528.53 624.00 523.00
C 634.75 520.50 646.57 518.28 658.00 517.00
C 670.72 515.58 683.93 516.05 697.00 516.00
C 695.99 545.61 688.62 573.69 679.00 601.00
C 691.41 574.97 697.59 545.10 698.00 515.00
C 658.94 512.99 611.98 520.07 579.70 535.70 C 547.41 551.32 525.03 576.20 516.00 610.00 Z"/>
</g>
<g fill="None" fill-opacity="0.0" stroke="#31B85C" stroke-opacity="1.00" stroke-width="0.3"><path d="
M 658.00 517.00 
C 669.89 517.11 683.21 517.39 696.00 517.00
C 691.40 563.08 682.39 605.84 652.75 642.75 C 623.12 679.67 573.54 690.66 527.00 687.00
C 532.50 680.31 538.99 673.59 545.70 667.70 C 552.40 661.80 557.39 652.97 563.77 646.77 C 570.15 640.57 576.97 633.87 582.75 626.75 C 588.53 619.64 596.60 614.50 602.25 607.25 C 607.89 600.00 615.79 594.42 621.25 587.25 C 626.70 580.07 636.71 574.35 637.00 566.00
C 609.36 586.37 578.97 608.06 554.00 633.00
C 579.16 609.74 607.47 589.22 635.00 570.00
C 598.80 609.71 559.84 647.51 525.00 688.00
C 566.13 690.37 607.72 685.98 639.00 659.00
C 643.64 655.12 648.92 649.41 653.00 645.00
C 658.12 638.51 663.68 631.69 668.00 625.00
C 671.66 617.08 675.96 609.23 679.00 601.00
C 688.62 573.69 695.99 545.61 697.00 516.00
C 683.93 516.05 670.72 515.58 658.00 517.00 Z"/>
</g>
<g fill="None" fill-opacity="0.0" stroke="#01CF5D" stroke-opacity="1.00" stroke-width="0.3"><path d="
M 624.00 523.00 
C 593.98 535.07 560.45 540.75 539.70 570.70 C 518.94 600.65 505.53 634.72 508.00 672.00
C 508.22 673.30 507.83 674.70 508.00 676.00
C 524.00 663.17 538.36 646.19 554.00 633.00
C 578.97 608.06 609.36 586.37 637.00 566.00
C 636.71 574.35 626.70 580.07 621.25 587.25 C 615.79 594.42 607.89 600.00 602.25 607.25 C 596.60 614.50 588.53 619.64 582.75 626.75 C 576.97 633.87 570.15 640.57 563.77 646.77 C 557.39 652.97 552.40 661.80 545.70 667.70 C 538.99 673.59 532.50 680.31 527.00 687.00
C 573.54 690.66 623.12 679.67 652.75 642.75 C 682.39 605.84 691.40 563.08 696.00 517.00
C 683.21 517.39 669.89 517.11 658.00 517.00
C 646.57 518.28 634.75 520.50 624.00 523.00 Z"/>
</g>
<g fill="None" fill-opacity="0.0" stroke="#2EB55B" stroke-opacity="1.00" stroke-width="0.3"><path d="
M 516.00 610.00 
C 514.75 614.69 513.04 619.29 512.00 624.00
C 508.84 638.28 505.40 656.76 508.00 672.00
C 505.53 634.72 518.94 600.65 539.70 570.70 C 560.45 540.75 593.98 535.07 624.00 523.00
C 600.21 528.53 574.09 535.75 555.25 552.25 C 536.41 568.75 524.15 587.91 516.00 610.00 Z"/>
</g>
<g fill="None" fill-opacity="0.0" stroke="#4E80D8" stroke-opacity="1.00" stroke-width="0.3"><path d="
M 381.00 561.00 
C 380.02 567.83 381.40 575.09 381.00 582.00 C 380.60 588.91 381.07 596.07 381.00 603.00 C 380.93 609.93 380.84 618.21 381.00 625.00 C 381.16 631.79 380.46 639.65 381.00 646.00 C 381.55 652.35 379.71 661.53 381.00 667.00 C 382.29 672.47 377.78 685.04 382.00 688.00
C 382.64 645.35 381.15 602.65 382.00 560.00
C 381.97 560.21 381.22 560.70 381.00 561.00 Z"/>
</g>
<g fill="None" fill-opacity="0.0" stroke="#E8FEFF" stroke-opacity="1.00" stroke-width="0.3"><path d="
M 489.00 688.00 
C 484.13 691.27 473.01 686.56 467.00 688.00 C 460.99 689.44 452.48 687.62 446.00 688.00 C 439.52 688.38 430.45 688.31 424.00 688.00 C 417.55 687.69 408.90 689.33 403.00 688.00 C 397.10 686.67 386.61 691.23 382.00 688.00
C 377.78 685.04 382.29 672.47 381.00 667.00 C 379.71 661.53 381.55 652.35 381.00 646.00 C 380.46 639.65 381.16 631.79 381.00 625.00 C 380.84 618.21 380.93 609.93 381.00 603.00 C 381.07 596.07 380.60 588.91 381.00 582.00 C 381.40 575.09 380.02 567.83 381.00 561.00
C 376.62 566.94 381.25 579.23 380.00 587.00 C 378.75 594.77 380.43 605.90 380.00 614.00 C 379.57 622.10 379.81 632.04 380.00 640.00 C 380.19 647.96 379.14 659.73 380.00 667.00 C 380.86 674.27 376.03 687.76 384.00 689.00 C 391.97 690.24 402.80 688.65 411.00 689.00 C 419.20 689.35 429.00 689.41 437.00 689.00 C 445.00 688.59 456.71 690.34 464.00 689.00 C 471.29 687.66 484.21 692.79 489.00 688.00 Z"/>
</g>
<g fill="None" fill-opacity="0.0" stroke="#DBFEE9" stroke-opacity="1.00" stroke-width="0.3"><path d="
M 554.00 633.00 
C 538.36 646.19 524.00 663.17 508.00 676.00
C 507.83 674.70 508.22 673.30 508.00 672.00
C 505.40 656.76 508.84 638.28 512.00 624.00
C 505.55 637.61 507.21 655.49 507.00 671.00 C 506.80 686.51 513.90 672.01 517.77 669.77 C 521.64 667.53 526.76 657.15 531.00 661.00
C 534.61 654.48 539.83 644.57 548.00 644.00
C 548.54 636.67 559.74 631.68 565.11 626.11 C 570.47 620.53 578.71 613.66 585.25 609.25 C 591.79 604.84 598.52 594.59 605.00 597.00
C 605.74 590.55 614.23 586.31 620.00 583.00
C 613.83 590.81 606.59 598.39 599.75 605.75 C 592.91 613.12 586.37 620.50 579.25 627.25 C 572.13 634.00 565.76 640.26 559.75 647.75 C 553.75 655.25 543.69 662.28 538.77 668.77 C 533.85 675.27 516.79 688.29 529.00 689.00 C 541.21 689.71 558.89 688.91 571.00 689.00 C 583.11 689.09 593.53 683.48 604.32 680.32 C 615.11 677.16 622.35 669.79 632.00 668.00
C 636.91 660.55 646.14 655.68 651.75 647.75 C 657.37 639.82 663.98 633.68 668.00 625.00
C 663.68 631.69 658.12 638.51 653.00 645.00
C 649.13 649.90 644.05 655.40 639.00 659.00
C 607.72 685.98 566.13 690.37 525.00 688.00
C 559.84 647.51 598.80 609.71 635.00 570.00
C 607.47 589.22 579.16 609.74 554.00 633.00 Z"/>
</g>
<g fill="None" fill-opacity="0.0" stroke="#A2F5BF" stroke-opacity="1.00" stroke-width="0.3"><path d="
M 639.00 659.00 
C 644.05 655.40 649.13 649.90 653.00 645.00
C 648.92 649.41 643.64 655.12 639.00 659.00 Z"/>
</g>
<g fill="None" fill-opacity="0.0" stroke="#5582DC" stroke-opacity="1.00" stroke-width="0.3"><path d="
M 489.00 672.00 
C 489.00 666.67 489.00 661.33 489.00 656.00
C 488.52 660.97 488.51 666.96 489.00 672.00 Z"/>
</g>
<g fill="#FDFDFD" fill-opacity="1.00" stroke="None">
<path d="
M 0.00 1024.00 
L 1024.00 1024.00
L 1024.00 0.00
L 0.00 0.00
L 0.00 1024.00
M 538.00 312.00 
C 580.27 317.11 615.47 334.20 648.00 362.00
C 651.94 365.37 655.67 369.11 659.00 373.00
C 687.20 406.00 709.21 448.49 708.00 493.00
C 708.23 498.14 704.55 499.35 699.00 498.00 C 693.45 496.65 686.63 500.79 683.00 497.00
C 681.84 495.79 682.10 494.77 682.00 493.00
C 679.73 453.91 664.33 420.64 639.00 391.00
C 635.08 387.08 630.87 382.87 627.00 379.00
C 598.72 354.83 568.91 342.00 531.98 337.02 C 495.04 332.05 450.87 342.39 420.25 361.25 C 389.64 380.12 371.83 404.42 356.00 435.00
C 355.83 435.33 355.26 435.75 355.00 436.00
C 352.22 442.67 350.48 448.13 348.22 455.22 C 345.97 462.32 344.49 469.51 343.22 477.22 C 341.95 484.93 341.35 493.73 341.00 502.00 C 340.65 510.27 341.17 519.40 341.00 528.00 C 340.83 536.60 341.13 546.26 341.00 555.00 C 340.87 563.74 341.18 573.30 341.00 582.00 C 340.82 590.70 341.35 599.45 341.00 608.00 C 340.65 616.55 341.73 626.77 341.00 635.00 C 340.27 643.23 342.59 654.60 341.00 662.00 C 339.41 669.40 344.99 683.17 340.00 688.00
C 335.74 692.43 324.90 688.02 318.00 689.00 C 311.10 689.98 312.92 676.44 313.00 670.00 C 313.08 663.56 312.97 653.28 313.00 646.00 C 313.03 638.72 313.00 629.64 313.00 622.00 C 313.00 614.36 313.03 605.77 313.00 598.00 C 312.97 590.23 313.08 582.86 313.00 575.00 C 312.92 567.14 313.17 558.95 313.00 551.00 C 312.83 543.05 313.39 535.00 313.00 527.00 C 312.61 519.00 313.86 511.06 313.00 503.00 C 312.14 494.94 313.61 487.72 316.00 482.00
C 316.17 480.49 316.81 478.96 317.00 478.00
C 324.70 439.62 337.19 403.33 364.75 373.75 C 392.32 344.18 422.48 326.79 460.00 317.00
C 460.25 316.75 460.65 316.11 461.00 316.00
C 480.90 309.99 504.39 308.53 526.00 310.00
C 529.95 310.27 534.58 311.59 538.00 312.00
M 522.00 429.00 
C 522.73 432.78 522.60 436.31 522.00 440.00
C 520.09 475.22 476.51 492.90 448.25 474.75 C 420.00 456.59 418.61 413.41 447.25 394.25 C 475.89 375.09 519.24 394.27 522.00 429.00
M 501.00 497.00 
C 501.25 497.26 501.00 498.00 501.00 498.00
C 521.96 498.80 544.06 511.23 554.00 530.00
C 513.04 559.20 490.06 606.94 489.00 656.00
C 489.00 661.33 489.00 666.67 489.00 672.00
C 489.00 675.55 490.96 686.04 489.00 688.00
C 484.21 692.79 471.29 687.66 464.00 689.00 C 456.71 690.34 445.00 688.59 437.00 689.00 C 429.00 689.41 419.20 689.35 411.00 689.00 C 402.80 688.65 391.97 690.24 384.00 689.00 C 376.03 687.76 380.86 674.27 380.00 667.00 C 379.14 659.73 380.19 647.96 380.00 640.00 C 379.81 632.04 379.57 622.10 380.00 614.00 C 380.43 605.90 378.75 594.77 380.00 587.00 C 381.25 579.23 376.62 566.94 381.00 561.00
C 381.22 560.70 381.97 560.21 382.00 560.00
C 382.65 527.32 414.59 499.70 446.00 498.00
C 446.49 497.88 447.04 497.12 448.00 497.00
C 452.52 495.16 459.71 495.82 465.00 496.00 C 470.29 496.18 477.99 495.12 483.00 496.00 C 488.01 496.88 497.64 493.52 501.00 497.00
M 679.00 601.00 
C 675.96 609.23 671.66 617.08 668.00 625.00
C 663.98 633.68 657.37 639.82 651.75 647.75 C 646.14 655.68 636.91 660.55 632.00 668.00
C 622.35 669.79 615.11 677.16 604.32 680.32 C 593.53 683.48 583.11 689.09 571.00 689.00 C 558.89 688.91 541.21 689.71 529.00 689.00 C 516.79 688.29 533.85 675.27 538.77 668.77 C 543.69 662.28 553.75 655.25 559.75 647.75 C 565.76 640.26 572.13 634.00 579.25 627.25 C 586.37 620.50 592.91 613.12 599.75 605.75 C 606.59 598.39 613.83 590.81 620.00 583.00
C 614.23 586.31 605.74 590.55 605.00 597.00
C 598.52 594.59 591.79 604.84 585.25 609.25 C 578.71 613.66 570.47 620.53 565.11 626.11 C 559.74 631.68 548.54 636.67 548.00 644.00
C 539.83 644.57 534.61 654.48 531.00 661.00
C 526.76 657.15 521.64 667.53 517.77 669.77 C 513.90 672.01 506.80 686.51 507.00 671.00 C 507.21 655.49 505.55 637.61 512.00 624.00
C 513.04 619.29 514.75 614.69 516.00 610.00
C 525.03 576.20 547.41 551.32 579.70 535.70 C 611.98 520.07 658.94 512.99 698.00 515.00
C 697.59 545.10 691.41 574.97 679.00 601.00 Z"/>
</g>
<g fill="#0F3EC8" fill-opacity="1.00" stroke="None">
<path d="
M 461.00 316.00 
C 470.22 318.47 480.53 311.83 491.01 312.01 C 501.48 312.19 515.82 310.29 526.00 310.00
C 504.39 308.53 480.90 309.99 461.00 316.00 Z"/>
</g>
<g fill="#025CFC" fill-opacity="1.00" stroke="None">
<path d="
M 461.00 316.00 
C 460.65 316.11 460.25 316.75 460.00 317.00
C 454.00 323.13 439.42 321.89 431.98 326.98 C 424.53 332.06 414.23 334.35 406.92 339.92 C 399.61 345.49 391.63 349.61 384.92 355.92 C 378.21 362.22 371.58 368.51 365.25 375.25 C 358.91 381.98 354.29 389.35 348.75 396.75 C 343.22 404.15 339.01 412.35 334.75 420.75 C 330.49 429.14 327.66 439.29 324.22 448.22 C 320.79 457.16 319.75 471.45 317.00 478.00
C 316.81 478.96 316.17 480.49 316.00 482.00
C 315.39 487.30 315.00 492.43 315.00 498.00
C 315.00 512.25 315.30 527.54 314.00 541.00
C 314.00 590.00 314.00 639.00 314.00 688.00
C 322.33 688.00 330.67 688.00 339.00 688.00
C 344.24 677.63 338.28 662.74 340.00 651.00 C 341.72 639.26 339.20 625.20 340.00 613.00 C 340.80 600.80 339.57 587.35 340.00 575.00 C 340.43 562.65 339.64 548.17 340.00 536.00 C 340.36 523.83 339.48 509.52 340.00 498.00 C 340.52 486.48 341.26 474.60 344.78 464.78 C 348.29 454.95 347.50 443.18 355.00 436.00
C 355.26 435.75 355.83 435.33 356.00 435.00
C 353.62 425.84 367.50 413.22 372.25 404.25 C 377.00 395.27 387.15 386.33 395.25 378.25 C 403.35 370.17 413.38 363.87 423.70 357.70 C 434.01 351.52 445.58 346.50 458.02 343.02 C 470.47 339.55 484.95 335.54 499.00 335.00 C 513.05 334.46 532.82 335.33 546.02 337.98 C 559.22 340.62 571.57 344.63 583.23 349.77 C 594.89 354.92 605.00 359.93 614.70 367.30 C 624.39 374.67 632.83 380.74 640.75 390.25 C 648.67 399.76 654.74 408.01 661.25 418.75 C 667.77 429.49 672.05 440.62 675.98 453.02 C 679.90 465.43 683.35 481.42 684.00 495.00
C 691.67 495.00 699.33 495.00 707.00 495.00
C 706.42 482.65 704.36 467.92 701.67 456.33 C 698.99 444.74 694.87 433.88 690.68 423.32 C 686.49 412.77 680.57 404.53 674.75 395.25 C 668.93 385.98 662.56 378.06 654.75 370.25 C 646.95 362.44 639.79 356.55 631.25 349.75 C 622.72 342.95 613.65 338.08 603.92 333.08 C 594.20 328.07 583.49 323.56 572.93 320.07 C 562.37 316.59 546.33 314.52 538.00 312.00
C 534.58 311.59 529.95 310.27 526.00 310.00
C 515.82 310.29 501.48 312.19 491.01 312.01 C 480.53 311.83 470.22 318.47 461.00 316.00 Z"/>
</g>
<g fill="#1442CA" fill-opacity="1.00" stroke="None">
<path d="
M 356.00 435.00 
C 371.83 404.42 389.64 380.12 420.25 361.25 C 450.87 342.39 495.04 332.05 531.98 337.02 C 568.91 342.00 598.72 354.83 627.00 379.00
C 631.29 382.66 635.38 386.76 639.00 391.00
C 664.33 420.64 679.73 453.91 682.00 493.00
C 682.23 493.67 683.71 494.72 683.00 496.00
C 691.33 496.00 699.67 496.00 708.00 496.00
C 708.30 495.38 707.98 493.70 708.00 493.00
C 709.21 448.49 687.20 406.00 659.00 373.00
C 655.41 369.41 651.54 365.54 648.00 362.00
C 615.47 334.20 580.27 317.11 538.00 312.00
C 546.33 314.52 562.37 316.59 572.93 320.07 C 583.49 323.56 594.20 328.07 603.92 333.08 C 613.65 338.08 622.72 342.95 631.25 349.75 C 639.79 356.55 646.95 362.44 654.75 370.25 C 662.56 378.06 668.93 385.98 674.75 395.25 C 680.57 404.53 686.49 412.77 690.68 423.32 C 694.87 433.88 698.99 444.74 701.67 456.33 C 704.36 467.92 706.42 482.65 707.00 495.00
C 699.33 495.00 691.67 495.00 684.00 495.00
C 683.35 481.42 679.90 465.43 675.98 453.02 C 672.05 440.62 667.77 429.49 661.25 418.75 C 654.74 408.01 648.67 399.76 640.75 390.25 C 632.83 380.74 624.39 374.67 614.70 367.30 C 605.00 359.93 594.89 354.92 583.23 349.77 C 571.57 344.63 559.22 340.62 546.02 337.98 C 532.82 335.33 513.05 334.46 499.00 335.00 C 484.95 335.54 470.47 339.55 458.02 343.02 C 445.58 346.50 434.01 351.52 423.70 357.70 C 413.38 363.87 403.35 370.17 395.25 378.25 C 387.15 386.33 377.00 395.27 372.25 404.25 C 367.50 413.22 353.62 425.84 356.00 435.00 Z"/>
</g>
<g fill="#1745CB" fill-opacity="1.00" stroke="None">
<path d="
M 317.00 478.00 
C 319.75 471.45 320.79 457.16 324.22 448.22 C 327.66 439.29 330.49 429.14 334.75 420.75 C 339.01 412.35 343.22 404.15 348.75 396.75 C 354.29 389.35 358.91 381.98 365.25 375.25 C 371.58 368.51 378.21 362.22 384.92 355.92 C 391.63 349.61 399.61 345.49 406.92 339.92 C 414.23 334.35 424.53 332.06 431.98 326.98 C 439.42 321.89 454.00 323.13 460.00 317.00
C 422.48 326.79 392.32 344.18 364.75 373.75 C 337.19 403.33 324.70 439.62 317.00 478.00 Z"/>
</g>
<g fill="#8AABFE" fill-opacity="1.00" stroke="None">
<path d="
M 659.00 373.00 
C 655.67 369.11 651.94 365.37 648.00 362.00
C 651.54 365.54 655.41 369.41 659.00 373.00 Z"/>
</g>
<g fill="#AECDFF" fill-opacity="1.00" stroke="None">
<path d="
M 639.00 391.00 
C 635.38 386.76 631.29 382.66 627.00 379.00
C 630.87 382.87 635.08 387.08 639.00 391.00 Z"/>
</g>
<g fill="#1645CB" fill-opacity="1.00" stroke="None">
<path d="
M 522.00 440.00 
C 522.19 436.44 522.28 432.55 522.00 429.00
C 519.24 394.27 475.89 375.09 447.25 394.25 C 418.61 413.41 420.00 456.59 448.25 474.75 C 476.51 492.90 520.09 475.22 522.00 440.00
M 482.00 388.00 
C 515.29 393.41 533.49 436.49 511.25 463.25 C 489.00 490.00 446.19 485.54 431.68 453.32 C 417.16 421.11 444.77 381.95 482.00 388.00 Z"/>
</g>
<g fill="#005FFE" fill-opacity="1.00" stroke="None">
<path d="
M 482.00 388.00 
C 444.77 381.95 417.16 421.11 431.68 453.32 C 446.19 485.54 489.00 490.00 511.25 463.25 C 533.49 436.49 515.29 393.41 482.00 388.00 Z"/>
</g>
<g fill="#87A9EF" fill-opacity="1.00" stroke="None">
<path d="
M 522.00 440.00 
C 522.60 436.31 522.73 432.78 522.00 429.00
C 522.28 432.55 522.19 436.44 522.00 440.00 Z"/>
</g>
<g fill="#0A30B0" fill-opacity="1.00" stroke="None">
<path d="
M 339.00 688.00 
C 339.50 688.00 340.00 688.00 340.00 688.00
C 344.99 683.17 339.41 669.40 341.00 662.00 C 342.59 654.60 340.27 643.23 341.00 635.00 C 341.73 626.77 340.65 616.55 341.00 608.00 C 341.35 599.45 340.82 590.70 341.00 582.00 C 341.18 573.30 340.87 563.74 341.00 555.00 C 341.13 546.26 340.83 536.60 341.00 528.00 C 341.17 519.40 340.65 510.27 341.00 502.00 C 341.35 493.73 341.95 484.93 343.22 477.22 C 344.49 469.51 345.97 462.32 348.22 455.22 C 350.48 448.13 352.22 442.67 355.00 436.00
C 347.50 443.18 348.29 454.95 344.78 464.78 C 341.26 474.60 340.52 486.48 340.00 498.00 C 339.48 509.52 340.36 523.83 340.00 536.00 C 339.64 548.17 340.43 562.65 340.00 575.00 C 339.57 587.35 340.80 600.80 340.00 613.00 C 339.20 625.20 341.72 639.26 340.00 651.00 C 338.28 662.74 344.24 677.63 339.00 688.00 Z"/>
</g>
<g fill="#EBFDFF" fill-opacity="1.00" stroke="None">
<path d="
M 340.00 688.00 
C 340.00 688.00 339.50 688.00 339.00 688.00
C 330.67 688.00 322.33 688.00 314.00 688.00
C 314.00 639.00 314.00 590.00 314.00 541.00
C 314.00 526.75 313.70 511.46 315.00 498.00
C 315.00 492.43 315.39 487.30 316.00 482.00
C 313.61 487.72 312.14 494.94 313.00 503.00 C 313.86 511.06 312.61 519.00 313.00 527.00 C 313.39 535.00 312.83 543.05 313.00 551.00 C 313.17 558.95 312.92 567.14 313.00 575.00 C 313.08 582.86 312.97 590.23 313.00 598.00 C 313.03 605.77 313.00 614.36 313.00 622.00 C 313.00 629.64 313.03 638.72 313.00 646.00 C 312.97 653.28 313.08 663.56 313.00 670.00 C 312.92 676.44 311.10 689.98 318.00 689.00 C 324.90 688.02 335.74 692.43 340.00 688.00 Z"/>
</g>
<g fill="#356ACB" fill-opacity="1.00" stroke="None">
<path d="
M 683.00 497.00 
C 685.09 498.48 693.51 496.66 696.00 497.00 C 698.49 497.34 706.99 498.06 708.00 496.00
C 699.67 496.00 691.33 496.00 683.00 496.00
C 683.71 494.72 682.23 493.67 682.00 493.00
C 682.10 494.77 681.84 495.79 683.00 497.00 Z"/>
</g>
<g fill="#DEFCFF" fill-opacity="1.00" stroke="None">
<path d="
M 708.00 496.00 
C 706.99 498.06 698.49 497.34 696.00 497.00 C 693.51 496.66 685.09 498.48 683.00 497.00
C 686.63 500.79 693.45 496.65 699.00 498.00 C 704.55 499.35 708.23 498.14 708.00 493.00
C 707.98 493.70 708.30 495.38 708.00 496.00 Z"/>
</g>
<g fill="#E6FFFF" fill-opacity="1.00" stroke="None">
<path d="
M 448.00 497.00 
C 464.33 494.99 484.61 495.52 501.00 497.00
C 497.64 493.52 488.01 496.88 483.00 496.00 C 477.99 495.12 470.29 496.18 465.00 496.00 C 459.71 495.82 452.52 495.16 448.00 497.00 Z"/>
</g>
<g fill="#6493E5" fill-opacity="1.00" stroke="None">
<path d="
M 446.00 498.00 
C 464.05 497.02 482.93 497.31 501.00 498.00
C 501.00 498.00 501.25 497.26 501.00 497.00
C 484.61 495.52 464.33 494.99 448.00 497.00
C 447.04 497.12 446.49 497.88 446.00 498.00 Z"/>
</g>
<g fill="#6C9BFE" fill-opacity="1.00" stroke="None">
<path d="
M 314.00 541.00 
C 315.30 527.54 315.00 512.25 315.00 498.00
C 313.70 511.46 314.00 526.75 314.00 541.00 Z"/>
</g>
<g fill="#1043CD" fill-opacity="1.00" stroke="None">
<path d="
M 382.00 560.00 
C 381.15 602.65 382.64 645.35 382.00 688.00
C 386.61 691.23 397.10 686.67 403.00 688.00 C 408.90 689.33 417.55 687.69 424.00 688.00 C 430.45 688.31 439.52 688.38 446.00 688.00 C 452.48 687.62 460.99 689.44 467.00 688.00 C 473.01 686.56 484.13 691.27 489.00 688.00
C 490.96 686.04 489.00 675.55 489.00 672.00
C 488.51 666.96 488.52 660.97 489.00 656.00
C 490.06 606.94 513.04 559.20 554.00 530.00
C 544.06 511.23 521.96 498.80 501.00 498.00
C 482.93 497.31 464.05 497.02 446.00 498.00
C 414.59 499.70 382.65 527.32 382.00 560.00
M 552.00 530.00 
C 502.58 565.60 481.35 627.44 488.00 687.00
C 453.00 687.00 418.00 687.00 383.00 687.00
C 381.73 656.35 384.69 620.08 383.00 590.00 C 381.31 559.92 383.88 535.89 405.75 515.75 C 427.63 495.62 458.42 499.70 486.00 499.00 C 513.58 498.30 538.33 505.85 552.00 530.00 Z"/>
</g>
<g fill="#005FFE" fill-opacity="1.00" stroke="None">
<path d="
M 552.00 530.00 
C 538.33 505.85 513.58 498.30 486.00 499.00 C 458.42 499.70 427.63 495.62 405.75 515.75 C 383.88 535.89 381.31 559.92 383.00 590.00 C 384.69 620.08 381.73 656.35 383.00 687.00
C 418.00 687.00 453.00 687.00 488.00 687.00
C 481.35 627.44 502.58 565.60 552.00 530.00 Z"/>
</g>
<g fill="#D3FDE4" fill-opacity="1.00" stroke="None">
<path d="
M 516.00 610.00 
C 524.15 587.91 536.41 568.75 555.25 552.25 C 574.09 535.75 600.21 528.53 624.00 523.00
C 634.75 520.50 646.57 518.28 658.00 517.00
C 670.72 515.58 683.93 516.05 697.00 516.00
C 695.99 545.61 688.62 573.69 679.00 601.00
C 691.41 574.97 697.59 545.10 698.00 515.00
C 658.94 512.99 611.98 520.07 579.70 535.70 C 547.41 551.32 525.03 576.20 516.00 610.00 Z"/>
</g>
<g fill="#31B85C" fill-opacity="1.00" stroke="None">
<path d="
M 658.00 517.00 
C 669.89 517.11 683.21 517.39 696.00 517.00
C 691.40 563.08 682.39 605.84 652.75 642.75 C 623.12 679.67 573.54 690.66 527.00 687.00
C 532.50 680.31 538.99 673.59 545.70 667.70 C 552.40 661.80 557.39 652.97 563.77 646.77 C 570.15 640.57 576.97 633.87 582.75 626.75 C 588.53 619.64 596.60 614.50 602.25 607.25 C 607.89 600.00 615.79 594.42 621.25 587.25 C 626.70 580.07 636.71 574.35 637.00 566.00
C 609.36 586.37 578.97 608.06 554.00 633.00
C 579.16 609.74 607.47 589.22 635.00 570.00
C 598.80 609.71 559.84 647.51 525.00 688.00
C 566.13 690.37 607.72 685.98 639.00 659.00
C 643.64 655.12 648.92 649.41 653.00 645.00
C 658.12 638.51 663.68 631.69 668.00 625.00
C 671.66 617.08 675.96 609.23 679.00 601.00
C 688.62 573.69 695.99 545.61 697.00 516.00
C 683.93 516.05 670.72 515.58 658.00 517.00 Z"/>
</g>
<g fill="#01CF5D" fill-opacity="1.00" stroke="None">
<path d="
M 624.00 523.00 
C 593.98 535.07 560.45 540.75 539.70 570.70 C 518.94 600.65 505.53 634.72 508.00 672.00
C 508.22 673.30 507.83 674.70 508.00 676.00
C 524.00 663.17 538.36 646.19 554.00 633.00
C 578.97 608.06 609.36 586.37 637.00 566.00
C 636.71 574.35 626.70 580.07 621.25 587.25 C 615.79 594.42 607.89 600.00 602.25 607.25 C 596.60 614.50 588.53 619.64 582.75 626.75 C 576.97 633.87 570.15 640.57 563.77 646.77 C 557.39 652.97 552.40 661.80 545.70 667.70 C 538.99 673.59 532.50 680.31 527.00 687.00
C 573.54 690.66 623.12 679.67 652.75 642.75 C 682.39 605.84 691.40 563.08 696.00 517.00
C 683.21 517.39 669.89 517.11 658.00 517.00
C 646.57 518.28 634.75 520.50 624.00 523.00 Z"/>
</g>
<g fill="#2EB55B" fill-opacity="1.00" stroke="None">
<path d="
M 516.00 610.00 
C 514.75 614.69 513.04 619.29 512.00 624.00
C 508.84 638.28 505.40 656.76 508.00 672.00
C 505.53 634.72 518.94 600.65 539.70 570.70 C 560.45 540.75 593.98 535.07 624.00 523.00
C 600.21 528.53 574.09 535.75 555.25 552.25 C 536.41 568.75 524.15 587.91 516.00 610.00 Z"/>
</g>
<g fill="#4E80D8" fill-opacity="1.00" stroke="None">
<path d="
M 381.00 561.00 
C 380.02 567.83 381.40 575.09 381.00 582.00 C 380.60 588.91 381.07 596.07 381.00 603.00 C 380.93 609.93 380.84 618.21 381.00 625.00 C 381.16 631.79 380.46 639.65 381.00 646.00 C 381.55 652.35 379.71 661.53 381.00 667.00 C 382.29 672.47 377.78 685.04 382.00 688.00
C 382.64 645.35 381.15 602.65 382.00 560.00
C 381.97 560.21 381.22 560.70 381.00 561.00 Z"/>
</g>
<g fill="#E8FEFF" fill-opacity="1.00" stroke="None">
<path d="
M 489.00 688.00 
C 484.13 691.27 473.01 686.56 467.00 688.00 C 460.99 689.44 452.48 687.62 446.00 688.00 C 439.52 688.38 430.45 688.31 424.00 688.00 C 417.55 687.69 408.90 689.33 403.00 688.00 C 397.10 686.67 386.61 691.23 382.00 688.00
C 377.78 685.04 382.29 672.47 381.00 667.00 C 379.71 661.53 381.55 652.35 381.00 646.00 C 380.46 639.65 381.16 631.79 381.00 625.00 C 380.84 618.21 380.93 609.93 381.00 603.00 C 381.07 596.07 380.60 588.91 381.00 582.00 C 381.40 575.09 380.02 567.83 381.00 561.00
C 376.62 566.94 381.25 579.23 380.00 587.00 C 378.75 594.77 380.43 605.90 380.00 614.00 C 379.57 622.10 379.81 632.04 380.00 640.00 C 380.19 647.96 379.14 659.73 380.00 667.00 C 380.86 674.27 376.03 687.76 384.00 689.00 C 391.97 690.24 402.80 688.65 411.00 689.00 C 419.20 689.35 429.00 689.41 437.00 689.00 C 445.00 688.59 456.71 690.34 464.00 689.00 C 471.29 687.66 484.21 692.79 489.00 688.00 Z"/>
</g>
<g fill="#DBFEE9" fill-opacity="1.00" stroke="None">
<path d="
M 554.00 633.00 
C 538.36 646.19 524.00 663.17 508.00 676.00
C 507.83 674.70 508.22 673.30 508.00 672.00
C 505.40 656.76 508.84 638.28 512.00 624.00
C 505.55 637.61 507.21 655.49 507.00 671.00 C 506.80 686.51 513.90 672.01 517.77 669.77 C 521.64 667.53 526.76 657.15 531.00 661.00
C 534.61 654.48 539.83 644.57 548.00 644.00
C 548.54 636.67 559.74 631.68 565.11 626.11 C 570.47 620.53 578.71 613.66 585.25 609.25 C 591.79 604.84 598.52 594.59 605.00 597.00
C 605.74 590.55 614.23 586.31 620.00 583.00
C 613.83 590.81 606.59 598.39 599.75 605.75 C 592.91 613.12 586.37 620.50 579.25 627.25 C 572.13 634.00 565.76 640.26 559.75 647.75 C 553.75 655.25 543.69 662.28 538.77 668.77 C 533.85 675.27 516.79 688.29 529.00 689.00 C 541.21 689.71 558.89 688.91 571.00 689.00 C 583.11 689.09 593.53 683.48 604.32 680.32 C 615.11 677.16 622.35 669.79 632.00 668.00
C 636.91 660.55 646.14 655.68 651.75 647.75 C 657.37 639.82 663.98 633.68 668.00 625.00
C 663.68 631.69 658.12 638.51 653.00 645.00
C 649.13 649.90 644.05 655.40 639.00 659.00
C 607.72 685.98 566.13 690.37 525.00 688.00
C 559.84 647.51 598.80 609.71 635.00 570.00
C 607.47 589.22 579.16 609.74 554.00 633.00 Z"/>
</g>
<g fill="#A2F5BF" fill-opacity="1.00" stroke="None">
<path d="
M 639.00 659.00 
C 644.05 655.40 649.13 649.90 653.00 645.00
C 648.92 649.41 643.64 655.12 639.00 659.00 Z"/>
</g>
<g fill="#5582DC" fill-opacity="1.00" stroke="None">
<path d="
M 489.00 672.00 
C 489.00 666.67 489.00 661.33 489.00 656.00
C 488.52 660.97 488.51 666.96 489.00 672.00 Z"/>
</g>
</svg>